<?xml version="1.0" encoding="iso-8859-1"?>
<!-- Generator: Adobe Illustrator 19.0.0, SVG Export Plug-In . SVG Version: 6.00 Build 0)  -->
<svg version="1.1" id="Layer_1" xmlns="http://www.w3.org/2000/svg" xmlns:xlink="http://www.w3.org/1999/xlink" x="0px" y="0px"
	 viewBox="0 0 512.001 512.001" style="enable-background:new 0 0 512.001 512.001;" xml:space="preserve">
<g>
	<path style="fill:#2D527C;" d="M338.813,189.823c-0.003,0-0.003,0-0.006,0c-33.755-0.004-71.34-24.375-82.807-32.414
		c-11.474,8.042-49.06,32.414-82.809,32.414c-15.291,0-28.149-5.146-37.186-14.882c-14.271-15.377-11.091-36.202-8.536-52.934
		c0.932-6.108,1.815-11.877,1.664-16.129c-0.208-5.906-1.343-12.006-2.546-18.463c-1.412-7.573-2.871-15.406-3.045-23.893
		c-0.001-0.043-0.001-0.089-0.001-0.133c-0.001-0.013-0.001-0.026-0.001-0.037c-0.341-18.578,4.45-33.054,14.244-43.031
		c9.183-9.353,21.982-14.097,38.042-14.097c32.996,0,69.242,20.146,80.174,26.717c10.932-6.569,47.178-26.717,80.174-26.717
		c16.059,0,28.857,4.745,38.041,14.098c9.793,9.975,14.587,24.446,14.246,43.015c0,0.095-0.001,0.089-0.003,0.185
		c-0.173,8.487-1.633,16.319-3.045,23.893c-1.203,6.458-2.34,12.557-2.546,18.463c-0.149,4.252,0.732,10.019,1.664,16.128
		c2.556,16.733,5.737,37.558-8.534,52.936C366.959,184.678,354.102,189.823,338.813,189.823z M256,128.573
		c5.767,0,11.318,1.764,16.052,5.107c18.833,13.292,46.263,27.496,66.759,27.499c0.001,0,0.003,0,0.004,0
		c7.317,0,12.613-1.873,16.188-5.724c4.864-5.237,3.008-17.381,1.214-29.123c-1.091-7.142-2.22-14.529-1.976-21.459
		c0.282-8.043,1.673-15.496,3.015-22.704c1.249-6.703,2.429-13.036,2.564-19.141c0-0.003,0-0.007,0-0.007
		c0-0.054,0.001-0.105,0.003-0.155v-0.024c0,0,0,0.011,0,0.016c0-0.01,0-0.021,0.001-0.03h-0.001
		c0.135-7.288-0.806-17.097-6.047-22.435c-3.598-3.665-9.518-5.521-17.601-5.521c-20.639,0-47.488,11.785-65.732,22.813
		c-4.371,2.642-9.363,4.037-14.442,4.037c-5.078,0-10.071-1.396-14.44-4.036c-18.246-11.029-45.094-22.814-65.733-22.814
		c-8.086,0-14.007,1.858-17.603,5.52c-5.222,5.318-6.174,15.078-6.047,22.36l0,0c0,0.01,0,0.02,0,0.02c0,0.026,0,0.04,0.001,0.056
		c0,0,0,0.011,0,0.017l0,0v0.023c0.001,0.05,0.003,0.1,0.003,0.152c0,0,0,0.007,0,0.01c0.135,6.107,1.315,12.44,2.564,19.141
		c1.343,7.207,2.733,14.66,3.015,22.704c0.243,6.932-0.884,14.317-1.976,21.459c-1.793,11.742-3.648,23.886,1.216,29.124
		c3.573,3.85,8.869,5.723,16.192,5.723c20.493,0,47.923-14.207,66.759-27.5C244.682,130.339,250.233,128.573,256,128.573z"/>
	<path style="fill:#2D527C;" d="M399.424,505.777H112.575c-36.967,0-67.041-30.074-67.041-67.041V197.236
		c0-7.908,6.413-14.322,14.322-14.322h392.286c7.908,0,14.322,6.413,14.322,14.322v31.861c0,7.908-6.413,14.322-14.322,14.322
		s-14.322-6.413-14.322-14.322v-17.54H74.179v227.179c0,21.172,17.225,38.398,38.398,38.398h286.849
		c21.172,0,38.398-17.225,38.398-38.398v-139.77c0-7.908,6.413-14.322,14.322-14.322s14.322,6.413,14.322,14.322v139.77
		C466.464,475.703,436.391,505.777,399.424,505.777z"/>
</g>
<path style="fill:#CEE8FA;" d="M445.564,197.236H66.436c-28.782,0-52.115-23.331-52.115-52.113l0,0
	c0-28.782,23.333-52.113,52.113-52.113h379.129c28.782,0,52.113,23.333,52.113,52.113l0,0
	C497.678,173.905,474.346,197.236,445.564,197.236z"/>
<path style="fill:#2D527C;" d="M445.564,211.558H66.436C29.803,211.558,0,181.755,0,145.123c0-36.633,29.803-66.436,66.436-66.436
	h379.129c36.633,0,66.436,29.803,66.436,66.436C512,181.755,482.197,211.558,445.564,211.558z M66.436,107.33
	c-20.839,0-37.793,16.954-37.793,37.793c0,20.838,16.954,37.792,37.793,37.792h379.129c20.839,0,37.793-16.954,37.793-37.792
	c0-20.839-16.954-37.793-37.793-37.793H66.436z"/>
<path style="fill:#CEE8FA;" d="M307.519,255.832v-58.441l-103.038-0.306v58.747c0,19.854,12.594,35.95,28.13,35.95h46.779
	C294.925,291.78,307.519,275.686,307.519,255.832z"/>
<path style="fill:#2D527C;" d="M279.389,306.102h-46.777c-23.409,0-42.452-22.551-42.452-50.272v-58.749
	c0-3.805,1.515-7.454,4.209-10.143c2.685-2.675,6.322-4.179,10.112-4.179c0.014,0,0.029,0,0.042,0l103.037,0.306
	c7.894,0.024,14.28,6.428,14.28,14.322v58.442C321.841,283.551,302.797,306.102,279.389,306.102z M218.803,211.448v44.384
	c0,12.745,7.277,21.628,13.809,21.628h46.777c6.532,0,13.809-8.882,13.809-21.628V211.67L218.803,211.448z"/>
<path style="fill:#CEE8FA;" d="M204.481,399.338v87.084l103.038,0.306v-87.39c0-19.854-12.594-35.95-28.13-35.95h-46.777
	C217.075,363.388,204.481,379.484,204.481,399.338z"/>
<path style="fill:#2D527C;" d="M307.519,501.05c-0.014,0-0.029,0-0.042,0l-103.037-0.306c-7.894-0.024-14.28-6.428-14.28-14.322
	v-87.085c0-27.719,19.043-50.272,42.452-50.272h46.777c23.409,0,42.452,22.551,42.452,50.272v87.392
	c0,3.805-1.515,7.454-4.209,10.143C314.945,499.55,311.309,501.05,307.519,501.05z M218.803,472.144l74.394,0.222v-73.027
	c0-12.745-7.277-21.628-13.809-21.628h-46.776c-6.532,0-13.809,8.882-13.809,21.628V472.144z"/>
<g>
</g>
<g>
</g>
<g>
</g>
<g>
</g>
<g>
</g>
<g>
</g>
<g>
</g>
<g>
</g>
<g>
</g>
<g>
</g>
<g>
</g>
<g>
</g>
<g>
</g>
<g>
</g>
<g>
</g>
</svg>
